<?xml version="1.0" encoding="UTF-8"?>
<svg id="Layer_2" data-name="Layer 2" xmlns="http://www.w3.org/2000/svg" viewBox="0 0 85.49 90">
  <defs>
    <style>
      .cls-1 {
        fill: #1d5dcc;
      }

      .cls-1, .cls-2, .cls-3 {
        stroke-width: 0px;
      }

      .cls-2 {
        fill: #eaefff;
      }

      .cls-3 {
        fill: #377df6;
      }
    </style>
  </defs>
  <g id="Layer_2-2" data-name="Layer 2">
    <g>
      <path class="cls-1" d="m85.49,24.88v49c0,8.89-7.21,16.11-16.11,16.11h-6.95c4.61-3.85,7.55-9.65,7.55-16.11V24.88h15.51Z"/>
      <path class="cls-3" d="m0,24.89v49c0,8.89,7.23,16.11,16.11,16.11h32.89c8.89,0,16.11-7.23,16.11-16.11V24.89H0Zm41.52,33.51l2.11,12.34-11.08-5.83-11.08,5.83,2.11-12.34-8.97-8.74,12.4-1.8,5.53-11.23,5.55,11.23,12.39,1.8s-8.97,8.74-8.97,8.74Z"/>
      <path class="cls-3" d="m64.85,20.93h-6v-3.65c0-6.22-5.07-11.28-11.28-11.28s-11.28,5.07-11.28,11.28v3.65h-6v-3.65C30.28,7.75,38.04,0,47.57,0s17.28,7.75,17.28,17.28v3.65Z"/>
      <path class="cls-2" d="m49.84,20.93h-6v-3.65c0-6.22-5.07-11.28-11.28-11.28s-11.28,5.07-11.28,11.28v3.65h-6v-3.65C15.27,7.75,23.02,0,32.55,0s17.28,7.75,17.28,17.28v3.65h0Z"/>
    </g>
  </g>
</svg>