<svg xmlns="http://www.w3.org/2000/svg" style="display: none;">
  <symbol fill="currentColor" id="store-logo" viewBox="0 0 77.38 81.45">
    <path class="cls-3" d="m77.38,22.52v44.34c0,8.05-6.52,14.59-14.58,14.59h-6.29c4.18-3.49,6.83-8.73,6.83-14.59V22.52h14.04Z"/>
    <path class="cls-2" d="m0,22.53v44.35c0,8.05,6.54,14.58,14.58,14.58h29.76c8.05,0,14.58-6.54,14.58-14.58V22.53H0Zm37.58,30.33l1.92,11.17-10.03-5.28-10.03,5.28,1.92-11.17-8.12-7.91,11.22-1.63,5.01-10.17,5.02,10.17,11.21,1.63-8.12,7.91Z"/>
    <path class="cls-2" d="m58.7,18.95h-5.43v-3.3c0-5.63-4.58-10.22-10.21-10.22s-10.21,4.58-10.21,10.22v3.3h-5.43v-3.3c0-8.63,7.02-15.65,15.65-15.65s15.65,7.02,15.65,15.65v3.3Z"/>
    <path class="cls-1" d="m45.11,18.95h-5.43v-3.3c0-5.63-4.58-10.22-10.21-10.22s-10.22,4.58-10.22,10.22v3.3h-5.43v-3.3C13.82,7.02,20.84,0,29.46,0s15.65,7.02,15.65,15.65v3.3h0Z"/>
  </symbol>

  <symbol id="shopping-bag" viewBox="0 0 24 24">
    <path stroke-width="1.5" stroke-linecap="round" stroke-linejoin="round" d="m19.26 9.696 1.385 9A2 2 0 0 1 18.67 21H5.33a2 2 0 0 1-1.977-2.304l1.385-9A2 2 0 0 1 6.716 8h10.568a2 2 0 0 1 1.977 1.696ZM14 5a2 2 0 1 0-4 0"></path>
  </symbol>
  
  <symbol id="shopping-bag-add" viewBox="0 0 24 24">
    <path stroke-width="1.5" stroke-linecap="round" stroke-linejoin="round" d="m19.26 9.696 1.385 9A2 2 0 0 1 18.67 21H5.33a2 2 0 0 1-1.977-2.304l1.385-9A2 2 0 0 1 6.716 8h10.568a2 2 0 0 1 1.977 1.696ZM14 5a2 2 0 1 0-4 0M8.992 15h3m3 0h-3m0 0v-3m0 3v3"></path>
  </symbol>

  <symbol id="shopping-bag-remove" viewBox="0 0 24 24"> 
    <path stroke-linecap='round' stroke-linejoin='round' d='m19.26 9.696 1.385 9A2 2 0 0 1 18.67 21H5.33a2 2 0 0 1-1.977-2.304l1.385-9A2 2 0 0 1 6.716 8h10.568a2 2 0 0 1 1.977 1.696ZM14 5a2 2 0 1 0-4 0M8.992 15h6'></path>
  </symbol>  

  <symbol id="shopping-bag-check" viewBox="0 0 24 24"> 
   <path stroke-linecap='round' stroke-linejoin='round' d='m20 14.5-.74-4.804A2 2 0 0 0 17.285 8H6.716a2 2 0 0 0-1.977 1.696l-1.385 9A2 2 0 0 0 5.331 21H12'></path><path stroke-linecap='round' stroke-linejoin='round' d='m14 19 3 3 5-5M14 5a2 2 0 1 0-4 0'></path>
  </symbol>

  <symbol id="shopping-bag-issue" viewBox="0 0 24 24">
    <path stroke-linecap="round" stroke-linejoin="round" d="m20 14.5-.74-4.804A2 2 0 0 0 17.285 8H6.716a2 2 0 0 0-1.977 1.696l-1.385 9A2 2 0 0 0 5.331 21H12M17.5 17v2M17.5 22.01l.01-.011M14 5a2 2 0 1 0-4 0"></path>
  </symbol>

  <symbol id="half-moon" viewBox="0 0 24 24"> 
    <path stroke-linecap='round' stroke-linejoin='round' d='M3 11.507a9.493 9.493 0 0 0 18 4.219c-8.507 0-12.726-4.22-12.726-12.726A9.494 9.494 0 0 0 3 11.507Z'></path>
  </symbol>  

  <symbol id="sun" viewBox="0 0 24 24"> 
    <path stroke-linecap='round' stroke-linejoin='round' d='M12 18a6 6 0 1 0 0-12 6 6 0 0 0 0 12ZM22 12h1M12 2V1M12 23v-1M20 20l-1-1M20 4l-1 1M4 20l1-1M4 4l1 1M1 12h1'></path>
  </symbol>

  <symbol id="trash-can" viewBox="0 0 24 24"> 
    <path stroke-linecap='round' stroke-linejoin='round' d='m20 9-1.995 11.346A2 2 0 0 1 16.035 22h-8.07a2 2 0 0 1-1.97-1.654L4 9M21 6h-5.625M3 6h5.625m0 0V4a2 2 0 0 1 2-2h2.75a2 2 0 0 1 2 2v2m-6.75 0h6.75'></path>
  </symbol>  

  <symbol id="add" viewBox="0 0 24 24"> 
   <path stroke-linecap='round' stroke-linejoin='round' d='M6 12h6m6 0h-6m0 0V6m0 6v6'></path>
  </symbol>

  <symbol id="add-square" viewBox="0 0 24 24"> 
    <path stroke-linecap='round' stroke-linejoin='round' d='M9 12h3m3 0h-3m0 0V9m0 3v3M21 3.6v16.8a.6.6 0 0 1-.6.6H3.6a.6.6 0 0 1-.6-.6V3.6a.6.6 0 0 1 .6-.6h16.8a.6.6 0 0 1 .6.6Z'></path>
  </symbol>  

  <symbol id="add-circle" viewBox="0 0 24 24"> 
   <path stroke-linecap='round' stroke-linejoin='round' d='M8 12h4m4 0h-4m0 0V8m0 4v4M12 22c5.523 0 10-4.477 10-10S17.523 2 12 2 2 6.477 2 12s4.477 10 10 10Z'></path>
  </symbol>

  <symbol id="minus" viewBox="0 0 24 24"> 
    <path stroke-linecap='round' stroke-linejoin='round' d='M6 12h12'></path>
  </symbol>  

  <symbol id="minus-square" viewBox="0 0 24 24"> 
   <path stroke-linecap='round' stroke-linejoin='round' d='M9 12h6M21 3.6v16.8a.6.6 0 0 1-.6.6H3.6a.6.6 0 0 1-.6-.6V3.6a.6.6 0 0 1 .6-.6h16.8a.6.6 0 0 1 .6.6Z'></path>
  </symbol>

  <symbol id="minus-circle" viewBox="0 0 24 24"> 
    <path stroke-linecap='round' stroke-linejoin='round' d='M8 12h8M12 22c5.523 0 10-4.477 10-10S17.523 2 12 2 2 6.477 2 12s4.477 10 10 10Z'></path>
  </symbol>  

  <symbol id="filter" viewBox="0 0 24 24"> 
   <path stroke-linecap='round' stroke-linejoin='round' d='M4 3h16a1 1 0 0 1 1 1v1.586a1 1 0 0 1-.293.707l-6.415 6.414a1 1 0 0 0-.292.707v6.305a1 1 0 0 1-1.243.97l-2-.5a1 1 0 0 1-.757-.97v-5.805a1 1 0 0 0-.293-.707L3.292 6.293A1 1 0 0 1 3 5.586V4a1 1 0 0 1 1-1Z'></path>
  </symbol>

  <symbol id="filter-list" viewBox="0 0 24 24"> 
   <path stroke-linecap='round' stroke-linejoin='round' d='M3 6h18M7 12h10M11 18h2'></path>
  </symbol>

  <symbol id="menu" viewBox="0 0 24 24"> 
   <path stroke-linecap='round' stroke-linejoin='round' d='M3 5h18M3 12h18M3 19h18'></path>
  </symbol>

  <symbol id="page-right" viewBox="0 0 24 24"> 
   <path stroke-linecap='round' stroke-linejoin='round' d='m11 8.5 3.5 3.5-3.5 3.5'></path><path   stroke-linecap='round' stroke-linejoin='round' d='M12 22c5.523 0 10-4.477 10-10S17.523 2 12 2 2 6.477 2 12s4.477 10 10 10Z'></path>
  </symbol>

  <symbol id="page-left" viewBox="0 0 24 24"> 
   <path stroke-linecap='round' stroke-linejoin='round' d='M13 8.5 9.5 12l3.5 3.5'></path><path   stroke-linecap='round' stroke-linejoin='round' d='M12 22c5.523 0 10-4.477 10-10S17.523 2 12 2 2 6.477 2 12s4.477 10 10 10Z'></path>
  </symbol>

  <symbol id="more-vertical" viewBox="0 0 24 24"> 
   <path fill="currentColor" stroke-linecap='round' stroke-linejoin='round' d='M12 12.5a.5.5 0 1 0 0-1 .5.5 0 0 0 0 1ZM12 20.5a.5.5 0 1 0 0-1 .5.5 0 0 0 0 1ZM12 4.5a.5.5 0 1 0 0-1 .5.5 0 0 0 0 1Z'></path>
  </symbol>

  <symbol id="more-horizontal" viewBox="0 0 24 24"> 
    <path fill="currentColor" stroke-linecap='round' stroke-linejoin='round' d='M20 12.5a.5.5 0 1 0 0-1 .5.5 0 0 0 0 1ZM12 12.5a.5.5 0 1 0 0-1 .5.5 0 0 0 0 1ZM4 12.5a.5.5 0 1 0 0-1 .5.5 0 0 0 0 1Z'></path>
  </symbol>

  <symbol id="sidebar-expand" viewBox="0 0 24 24"> 
    <path stroke-linecap='round' stroke-linejoin='round' d='M19 21H5a2 2 0 0 1-2-2V5a2 2 0 0 1 2-2h14a2 2 0 0 1 2 2v14a2 2 0 0 1-2 2ZM9.5 21V3'></path><path   stroke-linecap='round' stroke-linejoin='round' d='m5.5 10 1.75 2-1.75 2'></path>
  </symbol>

  <symbol id="sidebar-collapse" viewBox="0 0 24 24"> 
   <path stroke-linecap='round' stroke-linejoin='round' d='M19 21H5a2 2 0 0 1-2-2V5a2 2 0 0 1 2-2h14a2 2 0 0 1 2 2v14a2 2 0 0 1-2 2Z'></path><path   stroke-linecap='round' stroke-linejoin='round' d='M7.25 10 5.5 12l1.75 2M9.5 21V3'></path>
  </symbol>

  <symbol id="search" viewBox="0 0 24 24"> 
   <path stroke-linecap='round' stroke-linejoin='round' d='m17 17 4 4M3 11a8 8 0 1 0 16 0 8 8 0 0 0-16 0Z'></path>
  </symbol>
  
  <symbol id="search-input" viewBox="0 0 24 24"> 
   <path stroke-linecap='round' stroke-linejoin='round' d='M21 12v-2a5 5 0 0 0-5-5H8a5 5 0 0 0-5 5v0a5 5 0 0 0 5 5h4M20.124 19.119a3 3 0 1 0-4.248-4.237 3 3 0 0 0 4.248 4.237Zm0 0L22 21'></path>
  </symbol>
  
  <symbol id="star" viewBox="0 0 24 24"> 
   <path stroke-linecap='round' stroke-linejoin='round' d='m8.587 8.236 2.598-5.232a.911.911 0 0 1 1.63 0l2.598 5.232 5.808.844a.902.902 0 0 1 .503 1.542l-4.202 4.07.992 5.75c.127.738-.653 1.3-1.32.952L12 18.678l-5.195 2.716c-.666.349-1.446-.214-1.319-.953l.992-5.75-4.202-4.07a.902.902 0 0 1 .503-1.54l5.808-.845Z'></path>
  </symbol>
  
  <symbol id="label" viewBox="0 0 24 24"> 
   <path d='M3 17.4V6.6a.6.6 0 0 1 .6-.6h13.079c.2 0 .388.1.5.267l3.6 5.4a.6.6 0 0 1 0 .666l-3.6 5.4a.6.6 0 0 1-.5.267H3.6a.6.6 0 0 1-.6-.6Z'></path>
  </symbol>
  
  <symbol id="bookmark" viewBox="0 0 24 24"> 
   <path stroke-linecap='round' stroke-linejoin='round' d='M5 21V5a2 2 0 0 1 2-2h10a2 2 0 0 1 2 2v16l-5.918-3.805a2 2 0 0 0-2.164 0L5 21Z'></path>
  </symbol>
  
  <symbol id="spark" viewBox="0 0 24 24"> 
   <path stroke-linejoin='round' d='M3 12c6.268 0 9-2.637 9-9 0 6.363 2.713 9 9 9-6.287 0-9 2.713-9 9 0-6.287-2.732-9-9-9Z'></path>
  </symbol>
  
  <symbol id="sparks" viewBox="0 0 24 24"> 
    <path stroke-linejoin='round' d='M8 15c4.875 0 7-2.051 7-7 0 4.949 2.11 7 7 7-4.89 0-7 2.11-7 7 0-4.89-2.125-7-7-7ZM2 6.5c3.134 0 4.5-1.318 4.5-4.5 0 3.182 1.357 4.5 4.5 4.5-3.143 0-4.5 1.357-4.5 4.5 0-3.143-1.366-4.5-4.5-4.5Z'></path>
  </symbol>
  
  <symbol id="cancel" viewBox="0 0 24 24"> 
    <path stroke-linecap='round' stroke-linejoin='round' d='M6.758 17.243 12.001 12m5.243-5.243L12 12m0 0L6.758 6.757M12.001 12l5.243 5.243'></path>
  </symbol>

  <symbol id="nav-arrow-down" viewBox="0 0 24 24"> 
    <path stroke-linecap="round" stroke-linejoin="round" d="m6 9 6 6 6-6"></path>
  </symbol>

  <symbol id="nav-arrow-up" viewBox="0 0 24 24"> 
    <path stroke-linecap="round" stroke-linejoin="round" d="m6 15 6-6 6 6"></path>
  </symbol>

  <symbol id="nav-arrow-right" viewBox="0 0 24 24"> 
    <path stroke-linecap="round" stroke-linejoin="round" d="m9 6 6 6-6 6"></path>
  </symbol>

  <symbol id="nav-arrow-left" viewBox="0 0 24 24">    
   <path stroke-linecap="round" stroke-linejoin="round" d="m15 6-6 6 6 6"></path>
  </symbol>  
</svg>