<?xml version="1.0" encoding="UTF-8"?>
<svg class="nav-logo-icon" stroke="none" fill="currentColor" xmlns="http://www.w3.org/2000/svg" viewBox="0 0 122.45 117.44">
      <path fill="currentColor" d="m65.42,64.36c11.05,5.15,22.46,7.71,32.1,7.21.06,0,.11,0,.17-.01l.69-68.52c.02-2.42-2.68-3.88-4.69-2.52l-57.64,38.88c4.67,8.9,15.45,18.47,29.36,24.96Z"/>
      <path fill="currentColor" d="m95.11,78.15c-10.05,0-21.46-2.76-32.44-7.88-15.16-7.07-26.56-17.15-32.04-27.21L1.33,62.83c-2.29,1.54-1.46,5.1,1.28,5.47l49.21,6.69c2.9.39,5.55,1.82,7.48,4.02l32.7,37.39c1.82,2.08,5.24.81,5.27-1.95l.37-36.37c-.83.04-1.67.06-2.51.06Z"/>
      <path fill="currentColor" d="m95.11,72.96c-10.05,0-21.46-2.76-32.44-7.88-25.85-12.06-40.8-32.87-34.02-47.39C35.42,3.17,60.97,1.24,86.82,13.29c8.46,3.94,16.12,9.06,22.17,14.79,1.31,1.24,1.36,3.3.12,4.61-1.24,1.31-3.3,1.36-4.61.12-5.54-5.26-12.61-9.96-20.44-13.61-21.79-10.16-44.46-9.59-49.52,1.24-5.05,10.83,9.09,28.57,30.87,38.73,11.05,5.15,22.45,7.72,32.1,7.21,8.91-.47,15.1-3.47,17.42-8.45,2.42-5.2.08-11.13-2.31-15.19-.91-1.55-.4-3.55,1.15-4.46,1.55-.91,3.55-.4,4.46,1.15,4.51,7.65,5.43,15.2,2.61,21.26-3.39,7.27-11.55,11.61-22.99,12.2-.9.05-1.82.07-2.75.07Z"/>
</svg>